<?xml version="1.0" encoding="UTF-8"?>
<svg width="1200pt" height="1200pt" version="1.1" viewBox="0 0 1200 1200" xmlns="http://www.w3.org/2000/svg">
 <path d="m1182.2 685.95c-4.8633-6.4883-19.461-8.1094-48.648-1.6211 8.1094-8.1094 12.973-19.461 14.594-30.812 1.6211-11.352-4.8633-21.082-14.594-16.215-14.594 6.4883-11.352 27.566-21.082 38.918 0-42.164-32.434-77.836-25.945 8.1094-4.8633-6.4883-8.1094-14.594-12.973-21.082-12.973-14.594-32.434-6.4883-21.082 17.836 21.082 40.539 21.082 64.863-29.188 92.434-38.918 21.082-87.566 27.566-129.73 16.215-16.215 14.594-32.434 25.945-50.27 37.297-1.6211 1.6211-4.8633 3.2422-6.4883 4.8633-8.1094 4.8633-14.594 9.7305-22.703 12.973-1.6211 1.6211-4.8633 3.2422-6.4883 3.2422-8.1094 4.8633-16.215 8.1094-24.324 11.352-56.758 25.945-118.38 40.539-184.86 40.539-111.89 0-217.3-42.164-295.14-111.89-42.164 11.352-90.812 4.8633-129.73-16.215-48.648-25.941-48.648-50.266-27.566-90.805 12.973-24.324-8.1094-32.434-21.082-17.836-4.8633 6.4883-6.4883 14.594-12.973 21.082 6.4883-87.566-25.945-50.27-25.945-8.1094-8.1094-12.973-4.8633-34.055-21.082-38.918-9.7305-3.2422-16.215 6.4883-14.594 16.215 1.6211 11.352 6.4883 22.703 14.594 30.812-30.812-4.8633-45.406-3.2422-48.648 1.6211-12.973 17.836 43.785 25.945 55.137 29.188 0 0 3.2422 8.1094 8.1094 22.703 50.27 131.35 171.89 191.35 262.7 170.27 16.215 74.594 50.27 110.27 95.676 128.11-9.7305 27.566-21.082 50.27-29.188 69.73-14.594 29.188-24.324 48.648-12.973 63.242 8.1094 12.973 22.703 12.973 37.297 12.973 34.055-1.6211 53.512-8.1094 68.109-48.648 9.7305-27.566 17.836-55.137 21.082-82.703 24.324 1.6211 48.648 1.6211 74.594 1.6211 25.945 0 50.27 0 74.594-1.6211 4.8633 27.566 11.352 55.137 21.082 82.703 6.4883 19.461 16.215 30.812 27.566 38.918 11.352 6.4883 25.945 9.7305 43.785 9.7305 11.352 0 27.566-1.6211 35.676-12.973 16.215-24.324-16.215-60-43.785-132.97 45.406-17.836 79.461-53.512 95.676-128.11 90.812 21.082 212.43-37.297 262.7-170.27 4.8633-14.594 8.1094-22.703 8.1094-22.703 16.211-3.2461 72.969-11.352 59.996-29.191z" fill="#fff"/>
 <path d="m186.49 325.95c4.8633 6.4883 8.1094 12.973 12.973 19.461-9.7305 34.055-14.594 71.352-14.594 108.65 0 228.65 184.86 415.14 415.14 415.14 228.65 0 415.14-186.49 415.14-415.14 0-37.297-4.8633-72.973-14.594-108.65 3.2422-6.4883 8.1094-12.973 12.973-19.461 30.812-37.297 81.082-53.512 113.51-89.188 27.566-29.188 40.539-72.973 32.434-113.51-9.7344-38.922-35.68-74.598-72.977-92.434-34.055-16.215-72.973-17.836-110.27-11.352 24.324 12.973 40.539 37.297 47.027 64.863 4.8633 25.945 0 55.137-16.215 77.836 3.2422-24.324 1.6211-51.891-16.215-68.109-14.594-12.973-38.918-16.215-56.758-8.1094-19.461 8.1094-34.055 24.324-42.164 42.164-3.2422 8.1094-4.8633 16.215-8.1094 22.703-74.598-69.727-175.14-111.89-283.79-111.89-110.27 0-209.19 42.164-283.79 111.89-1.6211-8.1094-3.2422-16.215-8.1094-24.324-8.1094-17.836-22.703-34.055-42.164-42.164-19.461-8.1094-42.164-4.8633-56.758 8.1094-17.836 16.215-21.082 43.785-16.215 68.109-16.215-22.703-22.703-50.27-16.215-77.836 4.8633-27.566 22.703-50.27 47.027-64.863-37.293-4.8672-76.215-3.2461-110.27 12.973-37.297 17.836-63.242 53.512-71.348 94.051-8.1094 40.539 4.8633 82.703 32.434 113.51 32.43 34.059 82.699 50.273 111.89 87.57zm236.75 82.703c9.7305-97.297 94.055-168.65 189.73-158.92 95.676 9.7305 165.41 97.297 155.68 194.59-9.7305 97.297-94.055 168.65-189.73 158.92-95.676-9.7305-165.41-97.297-155.68-194.59z" fill="#fff"/>
 <path d="m604.86 541.62c47.027-4.8633 82.703-47.027 77.836-94.055-4.8633-47.027-47.027-81.082-94.055-77.836-9.7305 1.6211-21.082 3.2422-29.188 8.1094 9.7305 4.8633 17.836 14.594 19.461 25.945 1.6211 17.836-11.352 32.434-29.188 35.676-12.973 1.6211-25.945-6.4883-32.434-17.836-4.8633 12.973-8.1094 27.566-6.4883 42.164 3.2461 48.645 47.027 82.699 94.055 77.832zm19.461-79.457c11.352-1.6211 21.082 6.4883 22.703 17.836 1.6211 11.352-6.4883 21.082-17.836 22.703-11.352 1.6211-21.082-6.4883-22.703-17.836-1.625-11.355 6.4844-22.703 17.836-22.703z" fill="#fff"/>
</svg>
