<?xml version="1.0" encoding="UTF-8"?>
<svg width="1200pt" height="1200pt" version="1.1" viewBox="0 0 1200 1200" xmlns="http://www.w3.org/2000/svg">
 <path d="m600 450.05c27.609 0 50.062-22.406 50.062-49.969 0-27.609-22.453-50.016-50.062-50.016s-50.062 22.406-50.062 50.016c0 27.562 22.453 49.969 50.062 49.969z" fill="#676767"/>
 <path d="m600 500.02c-27.609 0-50.062 22.406-50.062 50.016v249.98c0 27.609 22.453 50.016 50.062 50.016s50.062-22.406 50.062-50.016v-249.98c0-27.609-22.453-50.016-50.062-50.016z" fill="#676767"/>
 <path d="m600 100.08c-275.63 0-500.02 224.26-500.02 499.97 0 275.68 224.39 499.92 500.02 499.92s500.02-224.26 500.02-499.92c0-275.72-224.39-499.97-500.02-499.97zm0 899.86c-220.45 0-399.89-179.44-399.89-399.94 0-220.55 179.48-399.98 399.89-399.98 220.6 0 399.89 179.44 399.89 399.98s-179.29 399.94-399.89 399.94z" fill="#676767"/>
</svg>
